<svg width="16" height="16" viewBox="0 0 16 16" fill="none" xmlns="http://www.w3.org/2000/svg">
<path d="M8 16C12.4183 16 16 12.4183 16 8C16 3.58172 12.4183 0 8 0C3.58172 0 0 3.58172 0 8C0 12.4183 3.58172 16 8 16Z" fill="#627EEA"/>
<path d="M8.24902 1.9989V6.43411L11.9975 8.10934L8.24902 1.9989Z" fill="white" fill-opacity="0.602"/>
<path d="M8.24947 1.9989L4.50098 8.10934L8.24947 6.43411V1.9989Z" fill="white"/>
<path d="M8.24902 10.9831V13.9967L11.9997 8.80701L8.24902 10.9831Z" fill="white" fill-opacity="0.602"/>
<path d="M8.24947 13.9967V10.9831L4.50098 8.80701L8.24947 13.9967Z" fill="white"/>
<path d="M8.24902 10.2854L11.9975 8.10934L8.24902 6.43411V10.2854Z" fill="white" fill-opacity="0.2"/>
<path d="M4.50098 8.10934L8.24947 10.2854V6.43411L4.50098 8.10934Z" fill="white" fill-opacity="0.602"/>
</svg>
