<svg width="17" height="16" viewBox="0 0 17 16" fill="none" xmlns="http://www.w3.org/2000/svg">
<mask id="mask0_111_26" style="mask-type:alpha" maskUnits="userSpaceOnUse" x="0" y="0" width="17" height="16">
<rect x="0.499756" width="16" height="16" fill="#D9D9D9"/>
</mask>
<g mask="url(#mask0_111_26)">
<path d="M4.49967 13.3333C3.76634 13.3333 3.13856 13.0722 2.61634 12.55C2.09412 12.0278 1.83301 11.4 1.83301 10.6667V5.33333C1.83301 4.6 2.09412 3.97222 2.61634 3.45C3.13856 2.92778 3.76634 2.66667 4.49967 2.66667H12.4997C13.233 2.66667 13.8608 2.92778 14.383 3.45C14.9052 3.97222 15.1663 4.6 15.1663 5.33333V10.6667C15.1663 11.4 14.9052 12.0278 14.383 12.55C13.8608 13.0722 13.233 13.3333 12.4997 13.3333H4.49967ZM4.49967 5.33333H12.4997C12.7441 5.33333 12.9775 5.36111 13.1997 5.41667C13.4219 5.47222 13.633 5.56111 13.833 5.68333V5.33333C13.833 4.96667 13.7025 4.65278 13.4413 4.39167C13.1802 4.13056 12.8663 4 12.4997 4H4.49967C4.13301 4 3.81912 4.13056 3.55801 4.39167C3.2969 4.65278 3.16634 4.96667 3.16634 5.33333V5.68333C3.36634 5.56111 3.57745 5.47222 3.79967 5.41667C4.0219 5.36111 4.25523 5.33333 4.49967 5.33333ZM3.26634 7.5L10.683 9.3C10.783 9.32222 10.883 9.32222 10.983 9.3C11.083 9.27778 11.1775 9.23333 11.2663 9.16667L13.583 7.23333C13.4608 7.06667 13.3052 6.93056 13.1163 6.825C12.9275 6.71944 12.7219 6.66667 12.4997 6.66667H4.49967C4.21079 6.66667 3.95801 6.74167 3.74134 6.89167C3.52467 7.04167 3.36634 7.24444 3.26634 7.5Z" fill="white"/>
</g>
</svg>
